<svg xmlns="http://www.w3.org/2000/svg" fill="rgba(255,255,255,.95)" viewBox="0 0 101 24">
    <path fill-rule="evenodd" d="M21 18C18.7909 18 17 16.2091 17 14L17 12C17 8.68629 19.6863 6 23 6L27 6C30.3137 6 33 8.68629 33 12L33 13L29 13L29 12C29 10.8954 28.1046 10 27 10L23 10C21.8954 10 21 10.8954 21 12L21 18Z" clip-rule="evenodd"/>
    <path fill-rule="evenodd" d="M40 10C38.8954 10 38 10.8954 38 12V24H34L34 12C34 8.68629 36.6863 6 40 6L44 6C47.3137 6 50 8.68629 50 12C50 15.3137 47.3137 18 44 18H40V14H44C45.1046 14 46 13.1046 46 12C46 10.8954 45.1046 10 44 10L40 10Z" clip-rule="evenodd"/>
    <path fill-rule="evenodd" d="M6 10C4.89543 10 4 10.8954 4 12L4 18C1.79086 18 1.19209e-07 16.2091 0 14L0 12C-1.19209e-07 8.68629 2.68629 6 6 6L10 6C13.3137 6 16 8.68629 16 12C16 15.3137 13.3137 18 10 18H6L6 14H10C11.1046 14 12 13.1046 12 12C12 10.8954 11.1046 10 10 10L6 10Z" clip-rule="evenodd"/>
    <path fill-rule="evenodd" d="M97 6C99.2091 6 101 7.79086 101 10L101 12C101 15.3137 98.3137 18 95 18L91 18C87.6863 18 85 15.3137 85 12L85 9.99988C85 7.79081 86.7908 6 88.9999 6L88.9999 9.99988L89 12C89 13.1046 89.8954 14 91 14L95 14C96.1046 14 97 13.1046 97 12L97 6Z" clip-rule="evenodd"/>
    <path fill-rule="evenodd" d="M63 18L63 10L57 10C55.8954 10 55 10.8954 55 12L55 18C52.7909 18 51 16.2091 51 14L51 12C51 8.68629 53.6863 6 57 6L63 6L63 3.24683e-07L67 0L67 14C67 16.2091 65.2091 18 63 18Z" clip-rule="evenodd"/>
    <path fill-rule="evenodd" d="M84 14C84 16.2091 82.2091 18 80 18L74 18C70.6863 18 68 15.3137 68 12C68 8.68626 70.6863 5.99997 74 5.99997L78 5.99997C81.3137 5.99997 84 8.68631 84 12L80 12C80 10.8954 79.1045 9.99997 78 9.99997L74 9.99997C72.8954 9.99997 72 10.8954 72 12C72 13.1045 72.8954 14 74 14L84 14Z" clip-rule="evenodd"/>
</svg>
