<svg stroke-width="4" xmlns="http://www.w3.org/2000/svg" stroke="rgba(255,255,255,.95)" viewBox="0 0 101 24">
<path d="M21 16V16C19.8954 16 19 15.1046 19 14L19 12C19 9.79086 20.7909 8 23 8L27 8C29.2091 8 31 9.79086 31 12L31 13"/>
<path d="M36 24L36 12C36 9.79086 37.7909 8 40 8L44 8C46.2091 8 48 9.79086 48 12V12C48 14.2091 46.2091 16 44 16H40"/>
<path d="M9 16H10C12.2091 16 14 14.2091 14 12V12C14 9.79086 12.2091 8 10 8L6 8C3.79086 8 2 9.79086 2 12V12C2 14.2091 3.79086 16 6 16H7"/>
<path d="M97 8V8C98.1046 8 99 8.89543 99 10L99 12C99 14.2091 97.2091 16 95 16L91 16C88.7909 16 87 14.2091 87 12L87 9.99988C87 8.89538 87.8954 8 88.9999 8V8"/>
<path d="M65 0L65 14C65 15.1046 64.1046 16 63 16V16M63 8L57 8C54.7909 8 53 9.79086 53 12L53 14C53 15.1046 53.8954 16 55 16V16"/>
<path d="M82 14V14C82 15.1045 81.1046 16 80 16L74 16C71.7909 16 70 14.2091 70 12V12C70 9.79083 71.7909 7.99997 74 7.99997L78 7.99997C80.2091 7.99997 82 9.79086 82 12V12"/>
</svg>
