<svg version="1.1" id="Layer_1" xmlns="http://www.w3.org/2000/svg" xmlns:xlink="http://www.w3.org/1999/xlink" x="0px" y="0px" viewBox="0 0 300 300" xml:space="preserve">
<path d="M36.9706 132H104L111 139V144L75 180L78 183L64 198L51 185V175L70 156H46.4853C44.894 156 43.3679 156.632 42.2426 157.757L38 162L20 144L28.4853 135.515C30.7357 133.264 33.788 132 36.9706 132Z" fill="white"/>
<path d="M209 110V122H127L120 115V98H174L163.757 87.7574C162.632 86.6321 161.106 86 159.515 86H156V62H168.029C171.212 62 174.264 63.2643 176.515 65.5147L215 104L209 110Z" fill="white"/>
<path d="M55.9706 62H98L103 67V86H63.4853C61.894 86 60.3679 85.3679 59.2426 84.2426L57 82L44 69L47.4853 65.5147C49.7357 63.2643 52.788 62 55.9706 62Z" fill="white"/>
<path d="M44 115L37 122H20V62H32L44 74V115Z" fill="white"/>
<path d="M139 180V132H115V192H127L139 180Z" fill="white"/>
<path d="M80 93L74 99L56 81V62H68L80 74V93Z" fill="white"/>
<path d="M91.9706 62H104L109 67V86H100.817C99.6321 86 98.4741 85.6494 97.4885 84.9923L93 82L80 69L83.4853 65.5147C85.7357 63.2643 88.788 62 91.9706 62Z" fill="white"/>
<path d="M116 115L109 122H92V62H104L116 74V115Z" fill="white"/>
<path fill-rule="evenodd" clip-rule="evenodd" d="M232 132H166.971C163.788 132 160.736 133.264 158.485 135.515L143 151V180H155V192H220L239 173V139L232 132ZM210 168H167V161L172 156H215V163L210 168Z" fill="white"/>
</svg>
